<?xml version="1.0" encoding="utf-8"?>
<!-- Generator: Adobe Illustrator 19.1.0, SVG Export Plug-In . SVG Version: 6.00 Build 0)  -->
<svg version="1.1" id="Layer_1" xmlns="http://www.w3.org/2000/svg" xmlns:xlink="http://www.w3.org/1999/xlink" x="0px" y="0px"
	 viewBox="-495 320.9 200 200" style="enable-background:new -495 320.9 200 200;" xml:space="preserve">
<style type="text/css">
	.st0{fill:#C9D2D4;}
</style>
<g>
	<path class="st0" d="M-394.8,426.7c0,2.3-2,3-3.3,3h-13l2-3.2c0.1-0.3,0.2-0.5,0.2-0.9v-11h10.8c1.6,0,2.9,0.7,2.9,2.7v0.1
		c0,2-1.4,2.6-2.9,2.6h-6.3c-0.6,0-0.8,0.2-1.1,0.6c-0.3,0.4-1.7,2.8-1.7,2.8h9.1c1.7,0,3.3,0.7,3.3,3
		C-394.8,426.4-394.8,426.7-394.8,426.7z M-393.1,421.7c1.1-0.8,2.1-2.4,2.1-4.2v-1c0-3.5-3.1-5.4-6.4-5.4h-13.8
		c-1,0-1.7,0.7-1.7,1.7v18.5c0,1.1,0.8,1.8,1.8,1.8h13c6.7,0,7.5-4.8,7.5-6.1v-1C-390.7,424.5-391.7,422.6-393.1,421.7L-393.1,421.7
		z M-314.1,425.2c0,3.7-3.4,4.5-6.2,4.5h-10.4c0,0,1.8-2.9,1.9-3.1c0.1-0.3,0.3-0.5,0.3-1.2v-10.8h8.3c3.6,0,6.1,1.2,6.1,5.1V425.2z
		 M-319.7,411.1h-11.1c-1.1,0-1.7,0.8-1.7,1.8v18.5c0,1,0.5,1.7,1.6,1.7h10.7c7.3,0,10.2-3.1,10.2-8.3v-4.9
		C-310,413.6-313.7,411.1-319.7,411.1L-319.7,411.1z M-366.4,426.6c0,2.2-1.4,3-3.9,3.1c-0.2,0-13.1,0-13.1,0s1.8-2.8,2-3.2
		c0.2-0.3,0.3-0.6,0.3-1.1v-5.8c0-2.4,1.1-5.6,7.4-5.6c6.3,0,7.3,3.3,7.3,5.6L-366.4,426.6L-366.4,426.6z M-373.8,410.6
		c-8.7,0-11.5,4.4-11.5,9.1v7.2c0,4.7,2.8,6.3,6.4,6.3l10.3,0c4.1,0,6.3-2.7,6.3-6.3v-7.2C-362.3,415-365.1,410.6-373.8,410.6
		L-373.8,410.6z"/>
	<path class="st0" d="M-338,429.7h-16c0,0,1.7-2.7,1.9-3.1c0.2-0.4,0.3-0.6,0.3-1.2v-14.3h-4.1v20.4c0,1.3,0.9,1.7,2,1.7h15.9V429.7
		L-338,429.7z"/>
	<path class="st0" d="M-427.4,427.7l-6.8,11.9l-1.9-9L-427.4,427.7L-427.4,427.7z M-469.3,430.5l-1.9,9l-6.8-11.8L-469.3,430.5
		L-469.3,430.5z M-466.7,417.6l-10.4,6.8l12.9-19L-466.7,417.6L-466.7,417.6z M-453.8,409.2l-11.4,7.5l2.7-13.2
		C-462.5,403.5-453.8,409.2-453.8,409.2z M-460.8,403.1h16.3l-8.1,5.3L-460.8,403.1L-460.8,403.1z M-428.3,424.4l-10.4-6.8
		l-2.5-12.2L-428.3,424.4L-428.3,424.4z M-436.3,429.3l-2.1-10l10.9,7.1L-436.3,429.3L-436.3,429.3z M-437.2,430.9l1.9,9.4l-15.4-5
		L-437.2,430.9L-437.2,430.9z M-437.5,429.7l-15.2,5l-15.2-5l2.3-11.3l12.9-8.5l12.9,8.4L-437.5,429.7L-437.5,429.7z M-454.7,435.3
		l-15.4,5l1.9-9.4L-454.7,435.3L-454.7,435.3z M-477.9,426.5l10.9-7.1l-2.1,10L-477.9,426.5L-477.9,426.5z M-452.7,436l14.3,4.7
		H-467L-452.7,436L-452.7,436z M-451.5,409.2l8.7-5.7l2.7,13.2L-451.5,409.2L-451.5,409.2z M-442.1,401.9h-21.1l-16.8,24.7l8.7,15.3
		h37.2l8.7-15.3L-442.1,401.9L-442.1,401.9z"/>
</g>
</svg>
