<?xml version="1.0" encoding="utf-8"?>
<!-- Generator: Adobe Illustrator 15.0.0, SVG Export Plug-In . SVG Version: 6.00 Build 0)  -->
<!DOCTYPE svg PUBLIC "-//W3C//DTD SVG 1.1//EN" "http://www.w3.org/Graphics/SVG/1.1/DTD/svg11.dtd">
<svg version="1.1" id="Layer_1" xmlns="http://www.w3.org/2000/svg" xmlns:xlink="http://www.w3.org/1999/xlink" x="0px" y="0px"
	 width="300px" height="200px" viewBox="0 0 300 200" enable-background="new 0 0 300 200" xml:space="preserve">
<g>
	<path fill="#CAD3D5" d="M156.539,107.966l0.15-1.971c-3.865,0.454-8.793-1.517-8.566-5.989c0-4.32,3.488-5.988,8.566-5.837v-2.123
		c-5.609-0.151-11.598,1.517-11.826,7.96C144.939,105.844,149.867,108.421,156.539,107.966L156.539,107.966z"/>
	<path fill="#CAD3D5" d="M110.521,91.743c-4.32,0-8.111,3.714-8.111,8.338c0,4.549,3.715,8.34,8.111,8.34
		c4.473,0,8.111-3.714,8.111-8.34C118.633,95.457,114.994,91.743,110.521,91.743z M110.521,105.995
		c-2.805,0-5.004-2.729-5.004-6.064c0-3.26,2.199-5.989,5.004-5.989s5.156,2.729,5.156,5.989
		C115.678,103.267,113.326,105.995,110.521,105.995z"/>
	<path fill="#CAD3D5" d="M234.471,91.743c-4.475,0-8.111,3.714-8.111,8.338c0,4.549,3.637,8.34,8.111,8.34
		c4.473,0,8.111-3.714,8.111-8.34C242.582,95.457,238.943,91.743,234.471,91.743z M234.471,105.995
		c-2.805,0-5.154-2.729-5.004-6.064c0-3.26,2.199-5.989,5.004-5.989s5.002,2.729,5.002,5.989
		C239.551,103.267,237.275,105.995,234.471,105.995z"/>
	<polygon fill="#CAD3D5" points="87.173,92.197 89.977,92.197 89.977,107.966 87.173,107.966 	"/>
	<polygon fill="#CAD3D5" points="139.33,92.197 142.135,92.197 142.135,107.966 139.33,107.966 	"/>
	<polygon fill="#CAD3D5" points="203.01,92.197 205.814,92.197 205.814,107.966 203.01,107.966 	"/>
	<path fill="#CAD3D5" d="M132.811,92.197h2.576v15.921c-0.834,0-1.516,0-2.197,0c-2.199-5.384-6.443-10.614-9.25-12.282v12.282
		h-2.576V92.197h1.971c4.244,2.73,7.809,6.444,9.627,9.856v-9.856H132.811z"/>
	<path fill="#CAD3D5" d="M221.506,92.197h2.578v15.921c-0.834,0-1.516,0-2.197,0c-2.199-5.384-6.445-10.614-9.25-12.282v12.282
		h-2.576V92.197h1.971c4.244,2.73,7.809,6.444,9.627,9.856v-9.856H221.506z"/>
	<path fill="#CAD3D5" d="M95.208,98.642c3.26,2.577,5.534,5.762,6.67,9.324h-3.032c-0.834-2.198-3.487-6.67-7.354-9.021l6.52-6.899
		h3.411L95.208,98.642L95.208,98.642z"/>
	<polygon fill="#CAD3D5" points="157.752,107.966 160.404,107.966 164.877,97.656 170.26,107.966 173.367,107.966 164.953,91.971 	
		"/>
	<polygon fill="#CAD3D5" points="245.158,92.197 247.965,92.197 247.965,105.995 254.256,105.995 254.256,107.966 247.965,107.966 
		245.158,107.966 245.158,105.995 	"/>
	<path fill="#CAD3D5" d="M263.885,92.197v1.972h-4.094v13.797h-2.729V94.169h-4.094v-1.972
		C256.607,92.197,260.246,92.197,263.885,92.197L263.885,92.197z"/>
	<polygon fill="#CAD3D5" points="262.217,107.966 264.947,107.966 269.344,97.656 274.725,107.966 277.91,107.966 269.496,91.971 	
		"/>
	<path fill="#CAD3D5" d="M179.736,107.966c1.061,0,1.971,0,2.957,0c0.682-3.411,1.516-6.898,2.197-10.385
		c1.744,2.956,3.031,5.989,4.094,9.021h1.971c1.062-3.032,2.352-6.218,4.094-9.021c0.834,3.411,1.516,6.897,2.199,10.385
		c1.061,0,1.971,0,2.957,0c-1.518-5.382-2.428-10.613-4.549-16.147c-1.971,2.729-4.701,7.353-5.838,10.614
		c-1.061-3.412-3.867-7.961-5.838-10.614C182.314,97.353,181.252,102.584,179.736,107.966L179.736,107.966z"/>
	<path fill="#CAD3D5" d="M67.462,83.025c3.412,2.956,5.763,6.217,7.127,10.158c0,0.38-0.152,0.607-0.379,0.607l-3.715,0.151
		l-20.621,0.151H30.013h-6.443c-0.151-0.151-0.379-0.228-0.379-0.454c0.379-1.744,1.288-3.185,2.122-4.549
		c6.065-9.704,17.284-13.949,28.656-12.206C58.972,77.794,63.597,79.689,67.462,83.025L67.462,83.025z M74.361,105.995
		c0.379,0.151,0.379,0.379,0.379,0.607c-3.032,9.854-13.115,16.146-23.198,16.829c-10.916,0.683-21.302-3.866-26.685-12.964
		c-0.606-1.137-1.137-2.427-1.517-3.865c-0.15-0.229,0.152-0.379,0.229-0.456l0.909-0.151l15.541-0.151h30.627L74.361,105.995
		L74.361,105.995z M75.119,103.038c0.683,0.455,0.151,1.29,0.151,1.971c-0.151,0.152-0.151,0.379-0.379,0.379l-3.866-0.15
		l-13.721-0.759l-8.87-0.379l-14.252,0.607l-8.567,0.605c-0.833,0-1.743,0.229-2.577,0c-0.379-0.605-0.455-1.288-0.379-1.896
		c0.606-0.454,1.289-0.15,1.971-0.379l19.862,0.607h10.083l13.19-0.379C70.04,103.038,72.77,103.038,75.119,103.038L75.119,103.038z
		 M75.649,100.461c0.152,0.606,0.152,1.137-0.15,1.744c-0.38,0.454-0.91,0.228-1.441,0.228l-9.854-0.456l-9.704-0.454l-11.826,0.152
		l-8.111,0.227l-10.765,0.683c-0.379,0-0.91,0.15-1.289-0.151c-0.455-0.607-0.455-1.29-0.379-1.972l0.379-0.151h2.426l15.92,0.606
		l9.703,0.151l7.354-0.151l16.299-0.682C74.74,100.234,75.347,100.006,75.649,100.461L75.649,100.461z M75.574,97.581
		c0.151,0.605,0.379,1.667-0.228,1.971h-3.411l-13.57-0.606H46.16l-7.808,0.151l-14.859,0.682c-0.455-0.151-0.91,0.152-1.138-0.379
		c-0.151-0.606-0.151-1.137,0-1.743c0.38-0.606,1.062-0.152,1.517-0.379l16.754,0.909c4.549,0.152,9.477,0,14.025,0l9.703-0.455
		l9.931-0.606C74.664,97.353,75.195,97.125,75.574,97.581L75.574,97.581z M74.892,94.624c0.379,0.606,0.607,1.289,0.379,1.971
		l-0.228,0.151H69.51l-13.722-0.379h-9.932l-9.476,0.228l-11.675,0.379l-1.744-0.151c-0.833-0.379-0.227-1.289-0.15-1.744
		c0.15-0.15,0.227-0.379,0.454-0.379l3.866,0.151l11.675,0.606l10.538,0.456l18.724-1.062c2.199-0.151,4.474-0.379,6.672-0.379
		L74.892,94.624L74.892,94.624z"/>
</g>
</svg>
