<?xml version="1.0" encoding="UTF-8"?>
<!-- Generator: Adobe Illustrator 15.0.2, SVG Export Plug-In . SVG Version: 6.00 Build 0)  -->
<!DOCTYPE svg PUBLIC "-//W3C//DTD SVG 1.1//EN" "http://www.w3.org/Graphics/SVG/1.1/DTD/svg11.dtd">
<svg version="1.1" id="Layer_1" xmlns="http://www.w3.org/2000/svg" xmlns:xlink="http://www.w3.org/1999/xlink" x="0px" y="0px" width="47px" height="25.927px" viewBox="0 0 47 25.927" enable-background="new 0 0 47 25.927" xml:space="preserve">
<path fill="#0081C6" d="M25.252,7.652c-3.495,0-6.529,1.965-8.062,4.85c-1.534-2.885-4.568-4.85-8.063-4.85  c-2.054,0-3.949,0.679-5.474,1.824V1.788H3.651C3.63,0.797,2.822,0,1.826,0S0.021,0.797,0,1.788H0v15.143h0.004  c0.081,4.971,4.133,8.975,9.123,8.975c3.495,0,6.53-1.964,8.063-4.849c1.533,2.885,4.568,4.849,8.062,4.849  c5.041,0,9.128-4.085,9.128-9.126S30.293,7.652,25.252,7.652 M9.126,22.254c-3.023,0-5.474-2.451-5.474-5.475  c0-3.024,2.451-5.475,5.474-5.475c3.024,0,5.475,2.451,5.475,5.475C14.602,19.803,12.15,22.254,9.126,22.254 M25.252,22.254  c-3.023,0-5.474-2.451-5.474-5.475c0-3.024,2.451-5.475,5.474-5.475s5.476,2.451,5.476,5.475  C30.728,19.803,28.276,22.254,25.252,22.254"/>
<path fill="#0081C6" d="M46.658,23.034l-4.674-6.248l4.674-6.249l-0.001,0c0.578-0.805,0.411-1.928-0.386-2.526  c-0.796-0.598-1.921-0.446-2.533,0.334v0l-4.035,5.393l-4.034-5.393v0c-0.612-0.78-1.737-0.932-2.534-0.333  c-0.796,0.599-0.964,1.721-0.386,2.526v0l4.674,6.249l-4.674,6.248v0.001c-0.578,0.805-0.41,1.928,0.386,2.525  c0.797,0.6,1.922,0.447,2.534-0.333l0,0l4.034-5.393l4.035,5.393l0,0c0.612,0.78,1.737,0.932,2.533,0.334  C47.068,24.963,47.235,23.84,46.658,23.034L46.658,23.034z"/>
</svg>