<?xml version="1.0" encoding="UTF-8"?>
<!-- Generator: Adobe Illustrator 15.0.2, SVG Export Plug-In . SVG Version: 6.00 Build 0)  -->
<!DOCTYPE svg PUBLIC "-//W3C//DTD SVG 1.1//EN" "http://www.w3.org/Graphics/SVG/1.1/DTD/svg11.dtd">
<svg version="1.1" id="Layer_1" xmlns="http://www.w3.org/2000/svg" xmlns:xlink="http://www.w3.org/1999/xlink" x="0px" y="0px" width="116px" height="24.771px" viewBox="0 0 116 24.771" enable-background="new 0 0 116 24.771" xml:space="preserve">
<g>
	<path fill="#F25022" d="M0,0h11.784c-0.001,3.927,0,7.856-0.001,11.784H0V0z"/>
	<path fill="#80BA01" d="M12.987,0h11.784c0,3.927,0.001,7.856,0,11.784c-3.928-0.001-7.855,0-11.782,0   C12.987,7.856,12.987,3.927,12.987,0"/>
	<path fill="#777777" d="M106.264,4.49c1.088-0.707,2.491-0.772,3.714-0.436c0.011,0.727,0.002,1.456,0.006,2.184   c-0.581-0.256-1.266-0.423-1.878-0.171c-0.486,0.192-0.775,0.691-0.85,1.189c-0.092,0.632-0.032,1.272-0.049,1.908   c1.244,0.003,2.486,0,3.73,0.001c0.008-0.807-0.01-1.614,0.01-2.421c0.845-0.241,1.681-0.511,2.521-0.764   c0.007,1.063-0.011,2.126,0.009,3.191c0.841-0.013,1.681-0.003,2.522-0.006v2.069c-0.845-0.034-1.688-0.009-2.532-0.012   c0.004,1.19,0.001,2.38,0.001,3.571c0.014,0.658-0.035,1.321,0.043,1.978c0.046,0.387,0.187,0.816,0.551,1.016   c0.607,0.34,1.379,0.192,1.938-0.182v2.09c-0.729,0.316-1.542,0.412-2.33,0.357c-0.748-0.056-1.521-0.327-2.009-0.921   c-0.563-0.672-0.709-1.582-0.721-2.432c-0.005-1.827,0.001-3.652-0.002-5.479c-1.244,0-2.487-0.001-3.731,0.001   c-0.001,2.866-0.001,5.731-0.001,8.597h-2.547c0-2.865-0.004-5.729,0.001-8.595c-0.592-0.011-1.183,0.003-1.773-0.009   c0.002-0.68,0.005-1.361-0.002-2.042c0.589-0.014,1.178-0.008,1.767-0.003c0.044-0.904-0.096-1.835,0.176-2.716   C105.056,5.656,105.564,4.939,106.264,4.49"/>
	<path fill="#777777" d="M51.699,4.639c0.513-0.078,1.07,0.098,1.411,0.5c0.399,0.44,0.473,1.141,0.177,1.655   c-0.327,0.58-1.059,0.85-1.696,0.711c-0.662-0.119-1.213-0.734-1.184-1.42C50.388,5.362,50.991,4.719,51.699,4.639"/>
	<path fill="#777777" d="M32.167,4.954h3.707c1.153,2.93,2.315,5.856,3.471,8.785c0.295,0.733,0.571,1.474,0.88,2.201   c1.484-3.661,2.989-7.312,4.461-10.977c1.188-0.02,2.378-0.004,3.567-0.007c-0.003,4.954-0.001,9.907,0,14.86   c-0.858-0.002-1.715,0.008-2.572-0.005c0.01-3.656,0-7.311,0.004-10.967c0.001-0.164-0.004-0.329-0.016-0.493   c-0.05,0.076-0.095,0.156-0.134,0.237c-1.472,3.742-2.973,7.473-4.438,11.218c-0.609,0.022-1.22,0.002-1.832,0.012   c-1.52-3.742-3.02-7.492-4.532-11.237c-0.039-0.078-0.082-0.154-0.128-0.227c-0.031,1.602-0.005,3.205-0.014,4.806   c0.001,2.218-0.001,4.437,0.001,6.654c-0.809,0.002-1.618,0-2.426,0.001C32.166,14.862,32.165,9.909,32.167,4.954"/>
	<path fill="#777777" d="M58.712,9.154c1.231-0.351,2.557-0.336,3.786,0.012c0.253,0.071,0.5,0.169,0.727,0.303   c-0.015,0.812,0,1.625-0.008,2.437c-0.82-0.628-1.863-1.026-2.908-0.894c-0.829,0.075-1.621,0.505-2.117,1.176   c-0.637,0.831-0.785,1.934-0.676,2.95c0.082,0.796,0.412,1.591,1.031,2.118c0.641,0.572,1.543,0.774,2.384,0.71   c0.83-0.095,1.615-0.448,2.286-0.938c0.007,0.77-0.004,1.54,0.006,2.308c-1.041,0.621-2.291,0.78-3.482,0.721   c-1.221-0.064-2.438-0.526-3.321-1.385c-0.96-0.924-1.48-2.245-1.542-3.565c-0.062-1.374,0.217-2.808,1.007-3.955   C56.547,10.173,57.583,9.48,58.712,9.154"/>
	<path fill="#777777" d="M75.979,8.972c1.223-0.156,2.513-0.087,3.648,0.43c0.984,0.445,1.784,1.267,2.226,2.25   c0.472,1.047,0.587,2.224,0.508,3.359c-0.079,1.108-0.428,2.221-1.122,3.102c-0.71,0.935-1.78,1.57-2.925,1.805   c-0.98,0.204-2.004,0.203-2.984-0.003c-1.171-0.25-2.257-0.931-2.943-1.92c-0.808-1.146-1.037-2.604-0.935-3.979   c0.07-1.166,0.432-2.34,1.177-3.254C73.444,9.738,74.694,9.133,75.979,8.972"/>
	<path fill="#777777" d="M86.552,8.992c1.179-0.207,2.412-0.055,3.527,0.368c0.001,0.781,0,1.562,0,2.342   c-0.779-0.535-1.73-0.824-2.676-0.791c-0.477,0.019-1,0.221-1.218,0.673c-0.173,0.448-0.052,1.036,0.369,1.304   c0.724,0.484,1.585,0.688,2.334,1.122c0.59,0.332,1.161,0.765,1.46,1.389c0.561,1.17,0.323,2.714-0.663,3.586   c-0.942,0.88-2.298,1.123-3.546,1.077c-0.887-0.057-1.777-0.232-2.591-0.595c0.003-0.821-0.006-1.643,0.004-2.463   c0.685,0.497,1.476,0.853,2.312,0.999c0.581,0.094,1.215,0.099,1.758-0.162c0.52-0.259,0.612-0.997,0.305-1.449   c-0.289-0.348-0.713-0.54-1.112-0.728c-0.751-0.338-1.541-0.62-2.2-1.126c-0.464-0.362-0.814-0.872-0.952-1.446   c-0.205-0.847-0.141-1.802,0.353-2.542C84.578,9.687,85.556,9.17,86.552,8.992"/>
	<path fill="#777777" d="M96.293,8.968c1.271-0.158,2.621-0.073,3.782,0.514c1.013,0.506,1.797,1.421,2.189,2.478   c0.306,0.809,0.414,1.683,0.396,2.544c0.003,1.286-0.344,2.607-1.152,3.628c-0.757,0.988-1.913,1.63-3.133,1.832   c-1.194,0.193-2.456,0.143-3.59-0.304c-1.149-0.453-2.105-1.375-2.589-2.511c-0.505-1.159-0.558-2.463-0.401-3.7   c0.166-1.238,0.727-2.448,1.681-3.271C94.26,9.489,95.267,9.099,96.293,8.968"/>
	<path fill="#777777" d="M68.924,9.328c0.703-0.422,1.598-0.458,2.365-0.2c-0.004,0.85,0,1.7-0.002,2.55   c-0.504-0.326-1.13-0.465-1.724-0.405c-0.722,0.082-1.296,0.637-1.593,1.274c-0.322,0.675-0.384,1.438-0.363,2.175   c0,1.698,0.001,3.396,0,5.094h-2.512c-0.004-3.549,0.003-7.098-0.004-10.646c0.84-0.011,1.679-0.007,2.517-0.002   c-0.003,0.61,0,1.219-0.002,1.829C67.879,10.334,68.285,9.689,68.924,9.328"/>
	<path fill="#777777" d="M50.638,9.168c0.844-0.003,1.69-0.012,2.536,0.004c-0.01,3.548-0.001,7.097-0.004,10.645h-2.53   C50.637,16.268,50.64,12.718,50.638,9.168"/>
	<path fill="#FEFEFE" d="M76.739,10.994c0.767-0.05,1.581,0.167,2.132,0.723c0.588,0.58,0.816,1.419,0.879,2.221   c0.046,0.876,0.011,1.791-0.357,2.603c-0.244,0.548-0.689,1.011-1.253,1.23c-0.657,0.252-1.397,0.267-2.076,0.091   c-0.693-0.182-1.279-0.682-1.598-1.318c-0.41-0.82-0.472-1.767-0.388-2.667c0.077-0.817,0.361-1.658,0.985-2.222   C75.515,11.234,76.131,11.028,76.739,10.994"/>
	<path fill="#FEFEFE" d="M96.979,10.997c0.721-0.051,1.489,0.115,2.042,0.602c0.512,0.423,0.793,1.057,0.923,1.696   c0.146,0.749,0.145,1.524,0.021,2.277c-0.098,0.559-0.292,1.119-0.659,1.563c-0.369,0.446-0.92,0.717-1.49,0.801   c-0.608,0.091-1.251,0.047-1.822-0.199c-0.615-0.261-1.092-0.793-1.344-1.407c-0.301-0.73-0.361-1.538-0.301-2.32   c0.056-0.756,0.271-1.533,0.771-2.121C95.576,11.34,96.275,11.036,96.979,10.997"/>
	<path fill="#02A4EF" d="M0,12.987c3.928,0.001,7.856-0.001,11.784,0.001c0,3.927,0,7.855,0,11.783H0V12.987z"/>
	<path fill="#FFB902" d="M12.988,12.988c3.927-0.001,7.854-0.001,11.783-0.001v11.784H12.987   C12.988,20.844,12.987,16.915,12.988,12.988"/>
</g>
</svg>